<?xml version="1.0" encoding="utf-8"?>
<!-- Generator: Adobe Illustrator 27.0.0, SVG Export Plug-In . SVG Version: 6.00 Build 0)  -->
<svg version="1.1" id="Layer_1" xmlns="http://www.w3.org/2000/svg" xmlns:xlink="http://www.w3.org/1999/xlink" x="0px" y="0px"
	 viewBox="0 0 288 288" style="enable-background:new 0 0 288 288;" xml:space="preserve">
<style type="text/css">
	.st0{fill:#594A4E;stroke:#FFFFFF;stroke-width:10;stroke-miterlimit:10;}
</style>
<g>
	<circle class="st0" cx="144.1" cy="143.9" r="115"/>
	<path class="st0" d="M182.5,163.2c4.9,4.9,4.9,12.9,0,17.8l-1.3,1.3c-4.9,4.9-12.9,4.9-17.8,0l-18.8-18.8l-18.8,18.8
		c-4.9,4.9-12.9,4.9-17.8,0l-1.3-1.3c-4.9-4.9-4.9-12.9,0-17.8l18.8-18.8l-18.8-18.8c-4.9-4.9-4.9-12.9,0-17.8l1.3-1.3
		c4.9-4.9,12.9-4.9,17.8,0l18.8,18.8l18.8-18.8c4.9-4.9,12.9-4.9,17.8,0l1.3,1.3c4.9,4.9,4.9,12.9,0,17.8l-18.8,18.8L182.5,163.2z"
		/>
</g>
</svg>
