<?xml version="1.0" encoding="utf-8"?>
<!-- Generator: Adobe Illustrator 27.0.0, SVG Export Plug-In . SVG Version: 6.00 Build 0)  -->
<svg version="1.1" id="Layer_1" xmlns="http://www.w3.org/2000/svg" xmlns:xlink="http://www.w3.org/1999/xlink" x="0px" y="0px"
	 viewBox="0 0 512 512" style="enable-background:new 0 0 512 512;" xml:space="preserve">
<style type="text/css">
	.st0{fill:#594A4E;stroke:#FFFFFF;stroke-width:5;stroke-miterlimit:10;}
</style>
<path class="st0" d="M256,464c-114.9,0-208-93.1-208-208S141.1,48,256,48s208,93.1,208,208S370.9,464,256,464z M256,0
	C114.6,0,0,114.6,0,256s114.6,256,256,256s256-114.6,256-256S397.4,0,256,0z M376.9,294.6c4.5-4.2,7.1-10.1,7.1-16.3
	c0-12.3-10-22.3-22.3-22.3H304v-96c0-17.7-14.3-32-32-32h-32c-17.7,0-32,14.3-32,32v96h-57.7c-12.3,0-22.3,10-22.3,22.3
	c0,6.2,2.6,12.1,7.1,16.3l107.1,99.9c3.8,3.5,8.7,5.5,13.8,5.5c5.1,0,10.1-2,13.8-5.5L376.9,294.6L376.9,294.6z"/>
</svg>
