<?xml version="1.0" encoding="utf-8"?>
<!-- Generator: Adobe Illustrator 27.0.0, SVG Export Plug-In . SVG Version: 6.00 Build 0)  -->
<svg version="1.1" id="Layer_1" xmlns="http://www.w3.org/2000/svg" xmlns:xlink="http://www.w3.org/1999/xlink" x="0px" y="0px"
	 viewBox="0 0 288 288" style="enable-background:new 0 0 288 288;" xml:space="preserve">
<style type="text/css">
	.st0{opacity:0.94;}
	.st1{fill:#594A4E;stroke:#FFFFFF;stroke-width:6;stroke-miterlimit:10;}
</style>
<g class="st0">
	<circle class="st1" cx="144.1" cy="143.9" r="115"/>
	<path class="st1" d="M190.2,156.4H98c-3.3,0-6-2.7-6-6v-13c0-3.3,2.7-6,6-6h92.2c3.3,0,6,2.7,6,6v13
		C196.2,153.7,193.5,156.4,190.2,156.4z"/>
	<path class="st1" d="M190.2,192.3H98c-3.3,0-6-2.7-6-6v-13c0-3.3,2.7-6,6-6h92.2c3.3,0,6,2.7,6,6v13
		C196.2,189.6,193.5,192.3,190.2,192.3z"/>
	<path class="st1" d="M192,120.5H99.8c-3.3,0-6-2.7-6-6v-13c0-3.3,2.7-6,6-6H192c3.3,0,6,2.7,6,6v13
		C198,117.8,195.3,120.5,192,120.5z"/>
</g>
</svg>
